<svg width="1253" height="301" viewBox="0 0 1253 301" fill="none" xmlns="http://www.w3.org/2000/svg">
<g filter="url(#filter0_di_5270_7190)">
<rect x="2" y="149" width="109" height="28" rx="8" fill="#27272A" shape-rendering="crispEdges"/>
<path d="M10.6666 165C9.562 165 8.66656 165.896 8.66656 167C8.66656 168.105 9.562 169 10.6666 169C11.7711 169 12.6666 168.105 12.6666 167C12.6666 165.896 11.7711 165 10.6666 165Z" stroke="#A4A4A4" stroke-linecap="round" stroke-linejoin="round"/>
<path d="M17.3333 165C16.2287 165 15.3333 165.896 15.3333 167C15.3333 168.105 16.2287 169 17.3333 169C18.4379 169 19.3333 168.105 19.3333 167C19.3333 165.896 18.4379 165 17.3333 165Z" stroke="#A4A4A4" stroke-linecap="round" stroke-linejoin="round"/>
<path d="M15.3332 166.333H12.6666" stroke="#A4A4A4" stroke-linecap="round" stroke-linejoin="round"/>
<path d="M20.6666 163.667C19.0289 162.848 16.6489 162.333 13.9999 162.333C11.351 162.333 8.97098 162.848 7.33325 163.667" stroke="#A4A4A4" stroke-linecap="round" stroke-linejoin="round"/>
<path d="M18.6666 162.667L17.9616 158.142C17.8178 157.219 16.8154 156.719 16.0061 157.166L15.5961 157.393C14.6012 157.943 13.3987 157.943 12.4037 157.393L11.9937 157.166C11.1844 156.719 10.182 157.219 10.0383 158.142L9.33325 162.667" stroke="#A4A4A4" stroke-linecap="round" stroke-linejoin="round"/>
<path d="M35.928 165.296H32.436L31.836 167H30.408L33.396 158.648H34.98L37.968 167H36.528L35.928 165.296ZM35.544 164.18L34.188 160.304L32.82 164.18H35.544ZM42.6032 160.28C43.1232 160.28 43.5872 160.388 43.9952 160.604C44.4112 160.82 44.7352 161.14 44.9672 161.564C45.1992 161.988 45.3152 162.5 45.3152 163.1V167H43.9592V163.304C43.9592 162.712 43.8112 162.26 43.5152 161.948C43.2192 161.628 42.8152 161.468 42.3032 161.468C41.7912 161.468 41.3832 161.628 41.0792 161.948C40.7832 162.26 40.6352 162.712 40.6352 163.304V167H39.2672V160.388H40.6352V161.144C40.8592 160.872 41.1432 160.66 41.4872 160.508C41.8392 160.356 42.2112 160.28 42.6032 160.28ZM49.9282 167.108C49.3042 167.108 48.7402 166.968 48.2362 166.688C47.7322 166.4 47.3362 166 47.0482 165.488C46.7602 164.968 46.6162 164.368 46.6162 163.688C46.6162 163.016 46.7642 162.42 47.0602 161.9C47.3562 161.38 47.7602 160.98 48.2722 160.7C48.7842 160.42 49.3562 160.28 49.9882 160.28C50.6202 160.28 51.1922 160.42 51.7042 160.7C52.2162 160.98 52.6202 161.38 52.9162 161.9C53.2122 162.42 53.3602 163.016 53.3602 163.688C53.3602 164.36 53.2082 164.956 52.9042 165.476C52.6002 165.996 52.1842 166.4 51.6562 166.688C51.1362 166.968 50.5602 167.108 49.9282 167.108ZM49.9282 165.92C50.2802 165.92 50.6082 165.836 50.9122 165.668C51.2242 165.5 51.4762 165.248 51.6682 164.912C51.8602 164.576 51.9562 164.168 51.9562 163.688C51.9562 163.208 51.8642 162.804 51.6802 162.476C51.4962 162.14 51.2522 161.888 50.9482 161.72C50.6442 161.552 50.3162 161.468 49.9642 161.468C49.6122 161.468 49.2842 161.552 48.9802 161.72C48.6842 161.888 48.4482 162.14 48.2722 162.476C48.0962 162.804 48.0082 163.208 48.0082 163.688C48.0082 164.4 48.1882 164.952 48.5482 165.344C48.9162 165.728 49.3762 165.92 49.9282 165.92ZM58.0485 160.28C58.5685 160.28 59.0325 160.388 59.4405 160.604C59.8565 160.82 60.1805 161.14 60.4125 161.564C60.6445 161.988 60.7605 162.5 60.7605 163.1V167H59.4045V163.304C59.4045 162.712 59.2565 162.26 58.9605 161.948C58.6645 161.628 58.2605 161.468 57.7485 161.468C57.2365 161.468 56.8285 161.628 56.5245 161.948C56.2285 162.26 56.0805 162.712 56.0805 163.304V167H54.7125V160.388H56.0805V161.144C56.3045 160.872 56.5885 160.66 56.9325 160.508C57.2845 160.356 57.6565 160.28 58.0485 160.28ZM68.4575 160.388L64.4015 170.108H62.9855L64.3295 166.892L61.7255 160.388H63.2495L65.1095 165.428L67.0415 160.388H68.4575ZM77.4938 160.28C78.0138 160.28 78.4778 160.388 78.8858 160.604C79.3018 160.82 79.6258 161.14 79.8578 161.564C80.0978 161.988 80.2178 162.5 80.2178 163.1V167H78.8618V163.304C78.8618 162.712 78.7138 162.26 78.4178 161.948C78.1218 161.628 77.7178 161.468 77.2058 161.468C76.6938 161.468 76.2858 161.628 75.9818 161.948C75.6858 162.26 75.5378 162.712 75.5378 163.304V167H74.1818V163.304C74.1818 162.712 74.0338 162.26 73.7378 161.948C73.4418 161.628 73.0378 161.468 72.5258 161.468C72.0138 161.468 71.6058 161.628 71.3018 161.948C71.0058 162.26 70.8578 162.712 70.8578 163.304V167H69.4898V160.388H70.8578V161.144C71.0818 160.872 71.3658 160.66 71.7098 160.508C72.0538 160.356 72.4218 160.28 72.8138 160.28C73.3418 160.28 73.8138 160.392 74.2298 160.616C74.6458 160.84 74.9658 161.164 75.1898 161.588C75.3898 161.188 75.7018 160.872 76.1258 160.64C76.5498 160.4 77.0058 160.28 77.4938 160.28ZM84.8266 167.108C84.2026 167.108 83.6386 166.968 83.1346 166.688C82.6306 166.4 82.2346 166 81.9466 165.488C81.6586 164.968 81.5146 164.368 81.5146 163.688C81.5146 163.016 81.6626 162.42 81.9586 161.9C82.2546 161.38 82.6586 160.98 83.1706 160.7C83.6826 160.42 84.2546 160.28 84.8866 160.28C85.5186 160.28 86.0906 160.42 86.6026 160.7C87.1146 160.98 87.5186 161.38 87.8146 161.9C88.1106 162.42 88.2586 163.016 88.2586 163.688C88.2586 164.36 88.1066 164.956 87.8026 165.476C87.4986 165.996 87.0826 166.4 86.5546 166.688C86.0346 166.968 85.4586 167.108 84.8266 167.108ZM84.8266 165.92C85.1786 165.92 85.5066 165.836 85.8106 165.668C86.1226 165.5 86.3746 165.248 86.5666 164.912C86.7586 164.576 86.8546 164.168 86.8546 163.688C86.8546 163.208 86.7626 162.804 86.5786 162.476C86.3946 162.14 86.1506 161.888 85.8466 161.72C85.5426 161.552 85.2146 161.468 84.8626 161.468C84.5106 161.468 84.1826 161.552 83.8786 161.72C83.5826 161.888 83.3466 162.14 83.1706 162.476C82.9946 162.804 82.9066 163.208 82.9066 163.688C82.9066 164.4 83.0866 164.952 83.4466 165.344C83.8146 165.728 84.2746 165.92 84.8266 165.92ZM95.5989 160.388V167H94.2309V166.22C94.0149 166.492 93.7309 166.708 93.3789 166.868C93.0349 167.02 92.6669 167.096 92.2749 167.096C91.7549 167.096 91.2869 166.988 90.8709 166.772C90.4629 166.556 90.1389 166.236 89.8989 165.812C89.6669 165.388 89.5509 164.876 89.5509 164.276V160.388H90.9069V164.072C90.9069 164.664 91.0549 165.12 91.3509 165.44C91.6469 165.752 92.0509 165.908 92.5629 165.908C93.0749 165.908 93.4789 165.752 93.7749 165.44C94.0789 165.12 94.2309 164.664 94.2309 164.072V160.388H95.5989ZM99.8039 167.108C99.2839 167.108 98.8159 167.016 98.3999 166.832C97.9919 166.64 97.6679 166.384 97.4279 166.064C97.1879 165.736 97.0599 165.372 97.0439 164.972H98.4599C98.4839 165.252 98.6159 165.488 98.8559 165.68C99.1039 165.864 99.4119 165.956 99.7799 165.956C100.164 165.956 100.46 165.884 100.668 165.74C100.884 165.588 100.992 165.396 100.992 165.164C100.992 164.916 100.872 164.732 100.632 164.612C100.4 164.492 100.028 164.36 99.5159 164.216C99.0199 164.08 98.6159 163.948 98.3039 163.82C97.9919 163.692 97.7199 163.496 97.4879 163.232C97.2639 162.968 97.1519 162.62 97.1519 162.188C97.1519 161.836 97.2559 161.516 97.4639 161.228C97.6719 160.932 97.9679 160.7 98.3519 160.532C98.7439 160.364 99.1919 160.28 99.6959 160.28C100.448 160.28 101.052 160.472 101.508 160.856C101.972 161.232 102.22 161.748 102.252 162.404H100.884C100.86 162.108 100.74 161.872 100.524 161.696C100.308 161.52 100.016 161.432 99.6479 161.432C99.2879 161.432 99.0119 161.5 98.8199 161.636C98.6279 161.772 98.5319 161.952 98.5319 162.176C98.5319 162.352 98.5959 162.5 98.7239 162.62C98.8519 162.74 99.0079 162.836 99.1919 162.908C99.3759 162.972 99.6479 163.056 100.008 163.16C100.488 163.288 100.88 163.42 101.184 163.556C101.496 163.684 101.764 163.876 101.988 164.132C102.212 164.388 102.328 164.728 102.336 165.152C102.336 165.528 102.232 165.864 102.024 166.16C101.816 166.456 101.52 166.688 101.136 166.856C100.76 167.024 100.316 167.108 99.8039 167.108Z" fill="#ECEDEE"/>
</g>
<g filter="url(#filter1_di_5270_7190)">
<rect x="1185" y="117" width="66" height="28" rx="8" fill="#F4F5F7" shape-rendering="crispEdges"/>
<path d="M1197 124.333H1193C1191.35 124.333 1191 124.679 1191 126.333V137.667H1199V126.333C1199 124.679 1198.65 124.333 1197 124.333Z" stroke="#08EA69" stroke-width="1.5" stroke-linejoin="round"/>
<path d="M1201 128.333H1199V137.667H1203V130.333C1203 128.679 1202.65 128.333 1201 128.333Z" stroke="#08EA69" stroke-width="1.5" stroke-linejoin="round"/>
<path d="M1194.33 127H1195.67M1194.33 129H1195.67M1194.33 131H1195.67" stroke="#08EA69" stroke-width="1.5" stroke-linecap="round" stroke-linejoin="round"/>
<path d="M1196.67 137.667V135C1196.67 134.371 1196.67 134.057 1196.47 133.862C1196.28 133.667 1195.96 133.667 1195.33 133.667H1194.67C1194.04 133.667 1193.72 133.667 1193.53 133.862C1193.33 134.057 1193.33 134.371 1193.33 135V137.667" stroke="#08EA69" stroke-width="1.5" stroke-linejoin="round"/>
<path d="M1218.81 126.66V127.776H1215.27V130.236H1218.03V131.352H1215.27V135H1213.9V126.66H1218.81ZM1226.06 128.388V135H1224.7V134.22C1224.48 134.492 1224.2 134.708 1223.84 134.868C1223.5 135.02 1223.13 135.096 1222.74 135.096C1222.22 135.096 1221.75 134.988 1221.34 134.772C1220.93 134.556 1220.6 134.236 1220.36 133.812C1220.13 133.388 1220.02 132.876 1220.02 132.276V128.388H1221.37V132.072C1221.37 132.664 1221.52 133.12 1221.82 133.44C1222.11 133.752 1222.52 133.908 1223.03 133.908C1223.54 133.908 1223.94 133.752 1224.24 133.44C1224.54 133.12 1224.7 132.664 1224.7 132.072V128.388H1226.06ZM1231.2 128.28C1231.72 128.28 1232.19 128.388 1232.6 128.604C1233.01 128.82 1233.34 129.14 1233.57 129.564C1233.8 129.988 1233.92 130.5 1233.92 131.1V135H1232.56V131.304C1232.56 130.712 1232.41 130.26 1232.12 129.948C1231.82 129.628 1231.42 129.468 1230.9 129.468C1230.39 129.468 1229.98 129.628 1229.68 129.948C1229.38 130.26 1229.24 130.712 1229.24 131.304V135H1227.87V128.388H1229.24V129.144C1229.46 128.872 1229.74 128.66 1230.09 128.508C1230.44 128.356 1230.81 128.28 1231.2 128.28ZM1235.21 131.664C1235.21 131 1235.34 130.412 1235.61 129.9C1235.89 129.388 1236.27 128.992 1236.74 128.712C1237.22 128.424 1237.75 128.28 1238.34 128.28C1238.77 128.28 1239.19 128.376 1239.61 128.568C1240.03 128.752 1240.37 129 1240.62 129.312V126.12H1242V135H1240.62V134.004C1240.39 134.324 1240.08 134.588 1239.68 134.796C1239.29 135.004 1238.84 135.108 1238.33 135.108C1237.75 135.108 1237.22 134.964 1236.74 134.676C1236.27 134.38 1235.89 133.972 1235.61 133.452C1235.34 132.924 1235.21 132.328 1235.21 131.664ZM1240.62 131.688C1240.62 131.232 1240.52 130.836 1240.33 130.5C1240.15 130.164 1239.9 129.908 1239.6 129.732C1239.29 129.556 1238.97 129.468 1238.61 129.468C1238.26 129.468 1237.93 129.556 1237.63 129.732C1237.33 129.9 1237.08 130.152 1236.89 130.488C1236.7 130.816 1236.61 131.208 1236.61 131.664C1236.61 132.12 1236.7 132.52 1236.89 132.864C1237.08 133.208 1237.33 133.472 1237.63 133.656C1237.94 133.832 1238.27 133.92 1238.61 133.92C1238.97 133.92 1239.29 133.832 1239.6 133.656C1239.9 133.48 1240.15 133.224 1240.33 132.888C1240.52 132.544 1240.62 132.144 1240.62 131.688Z" fill="#11181C"/>
</g>
<g filter="url(#filter2_di_5270_7190)">
<rect x="77" width="67" height="28" rx="8" fill="#F4F5F7" shape-rendering="crispEdges"/>
<path d="M95.1564 7.09741C93.1153 8.55397 89.2265 8.37922 88.4827 11.017C86.7628 9.16907 84.082 8.59472 81.6804 7.97529C81.8845 12.3223 83.911 12.5827 87.6941 14.0549C88.435 14.8607 88.6249 15.6152 88.2958 16.6394C89.7459 16.7988 90.5303 17.1228 91.6319 17.5063C91.6097 15.2667 90.8462 14.1023 89.2719 12.0365C89.6175 12.1688 90.6775 13.1934 91.04 13.868C94.4593 12.5423 95.6537 10.3657 95.1564 7.09741ZM86.6306 17.0594C84.7278 17.0519 83.067 17.6684 81.6798 19.3788C86.9009 17.8525 90.8049 18.966 96.4264 19.6255C92.7097 18.4145 89.4116 17.0704 86.6306 17.0594ZM89.6944 19.492C86.5919 19.5 83.2463 20.0776 81.6674 21.4651C86.9174 20.6335 92.8174 20.5773 96.3799 21.3099C96.4143 20.2056 93.2105 19.483 89.6944 19.492Z" fill="#3693FE"/>
<path d="M112.76 9.66L110.288 18H108.74L106.988 11.688L105.128 18L103.592 18.012L101.228 9.66H102.68L104.408 16.452L106.28 9.66H107.816L109.556 16.416L111.296 9.66H112.76ZM117.308 11.28C117.812 11.28 118.26 11.388 118.652 11.604C119.052 11.82 119.364 12.14 119.588 12.564C119.82 12.988 119.936 13.5 119.936 14.1V18H118.58V14.304C118.58 13.712 118.432 13.26 118.136 12.948C117.84 12.628 117.436 12.468 116.924 12.468C116.412 12.468 116.004 12.628 115.7 12.948C115.404 13.26 115.256 13.712 115.256 14.304V18H113.888V9.12H115.256V12.156C115.488 11.876 115.78 11.66 116.132 11.508C116.492 11.356 116.884 11.28 117.308 11.28ZM121.225 14.664C121.225 14 121.361 13.412 121.633 12.9C121.913 12.388 122.289 11.992 122.761 11.712C123.241 11.424 123.769 11.28 124.345 11.28C124.865 11.28 125.317 11.384 125.701 11.592C126.093 11.792 126.405 12.044 126.637 12.348V11.388H128.017V18H126.637V17.016C126.405 17.328 126.089 17.588 125.689 17.796C125.289 18.004 124.833 18.108 124.321 18.108C123.753 18.108 123.233 17.964 122.761 17.676C122.289 17.38 121.913 16.972 121.633 16.452C121.361 15.924 121.225 15.328 121.225 14.664ZM126.637 14.688C126.637 14.232 126.541 13.836 126.349 13.5C126.165 13.164 125.921 12.908 125.617 12.732C125.313 12.556 124.985 12.468 124.633 12.468C124.281 12.468 123.953 12.556 123.649 12.732C123.345 12.9 123.097 13.152 122.905 13.488C122.721 13.816 122.629 14.208 122.629 14.664C122.629 15.12 122.721 15.52 122.905 15.864C123.097 16.208 123.345 16.472 123.649 16.656C123.961 16.832 124.289 16.92 124.633 16.92C124.985 16.92 125.313 16.832 125.617 16.656C125.921 16.48 126.165 16.224 126.349 15.888C126.541 15.544 126.637 15.144 126.637 14.688ZM131.182 9.12V18H129.814V9.12H131.182ZM139.038 14.532C139.038 14.78 139.022 15.004 138.99 15.204H133.938C133.978 15.732 134.174 16.156 134.526 16.476C134.878 16.796 135.31 16.956 135.822 16.956C136.558 16.956 137.078 16.648 137.382 16.032H138.858C138.658 16.64 138.294 17.14 137.766 17.532C137.246 17.916 136.598 18.108 135.822 18.108C135.19 18.108 134.622 17.968 134.118 17.688C133.622 17.4 133.23 17 132.942 16.488C132.662 15.968 132.522 15.368 132.522 14.688C132.522 14.008 132.658 13.412 132.93 12.9C133.21 12.38 133.598 11.98 134.094 11.7C134.598 11.42 135.174 11.28 135.822 11.28C136.446 11.28 137.002 11.416 137.49 11.688C137.978 11.96 138.358 12.344 138.63 12.84C138.902 13.328 139.038 13.892 139.038 14.532ZM137.61 14.1C137.602 13.596 137.422 13.192 137.07 12.888C136.718 12.584 136.282 12.432 135.762 12.432C135.29 12.432 134.886 12.584 134.55 12.888C134.214 13.184 134.014 13.588 133.95 14.1H137.61Z" fill="#11181C"/>
</g>
<g filter="url(#filter3_di_5270_7190)">
<rect x="1083" y="251" width="50" height="28" rx="8" fill="#F4F5F7" shape-rendering="crispEdges"/>
<path d="M1091.67 263.333C1092.22 263.333 1092.67 262.886 1092.67 262.333C1092.67 261.781 1092.22 261.333 1091.67 261.333C1091.11 261.333 1090.67 261.781 1090.67 262.333C1090.67 262.886 1091.11 263.333 1091.67 263.333Z" stroke="#FFB963" stroke-linecap="round" stroke-linejoin="round"/>
<path d="M1101 264.333C1101 264.647 1101 264.98 1101 265.333C1101 268.319 1101 269.812 1100.07 270.739C1099.15 271.667 1097.65 271.667 1094.67 271.667C1091.68 271.667 1090.19 271.667 1089.26 270.739C1088.33 269.812 1088.33 268.319 1088.33 265.333C1088.33 262.348 1088.33 260.855 1089.26 259.927C1090.19 259 1091.68 259 1094.67 259C1095.02 259 1095.35 259 1095.67 259.002" stroke="#FFB963" stroke-linecap="round"/>
<path d="M1099.33 258.333L1099.51 258.798C1099.73 259.407 1099.84 259.712 1100.07 259.934C1100.29 260.156 1100.59 260.269 1101.2 260.495L1101.67 260.667L1101.2 260.839C1100.59 261.064 1100.29 261.177 1100.07 261.399C1099.84 261.621 1099.73 261.926 1099.51 262.535L1099.33 263L1099.16 262.535C1098.94 261.926 1098.82 261.621 1098.6 261.399C1098.38 261.177 1098.07 261.064 1097.46 260.839L1097 260.667L1097.46 260.495C1098.07 260.269 1098.38 260.156 1098.6 259.934C1098.82 259.712 1098.94 259.407 1099.16 258.798L1099.33 258.333Z" stroke="#FFB963" stroke-linejoin="round"/>
<path d="M1090 271.333C1092.91 267.85 1096.18 263.256 1101 266.362" stroke="#FFB963"/>
<path d="M1114.75 269H1113.38L1109.27 262.772V269H1107.9V260.648H1109.27L1113.38 266.864V260.648H1114.75V269ZM1121.46 260.66V261.776H1117.92V264.236H1120.68V265.352H1117.92V269H1116.55V260.66H1121.46ZM1128.11 260.66V261.776H1125.89V269H1124.52V261.776H1122.29V260.66H1128.11Z" fill="#11181C"/>
</g>
<g filter="url(#filter4_di_5270_7190)">
<rect x="124" y="269" width="89" height="28" rx="8" fill="#F4F5F7" shape-rendering="crispEdges"/>
<path d="M130 282.333C130 280.448 130 279.505 130.586 278.919C131.172 278.333 132.114 278.333 134 278.333H135.333C137.219 278.333 138.162 278.333 138.748 278.919C139.333 279.505 139.333 280.448 139.333 282.333V285.667C139.333 287.552 139.333 288.495 138.748 289.081C138.162 289.667 137.219 289.667 135.333 289.667H134C132.114 289.667 131.172 289.667 130.586 289.081C130 288.495 130 287.552 130 285.667V282.333Z" stroke="#87E91D" stroke-width="1.25"/>
<path d="M133.363 282.841L133.618 282.537C134.104 281.957 134.347 281.667 134.667 281.667C134.986 281.667 135.229 281.957 135.715 282.537L135.97 282.841C136.435 283.395 136.667 283.672 136.667 284C136.667 284.328 136.435 284.605 135.97 285.159L135.715 285.463C135.229 286.043 134.986 286.333 134.667 286.333C134.347 286.333 134.104 286.043 133.618 285.463L133.363 285.159C132.899 284.605 132.667 284.328 132.667 284C132.667 283.672 132.899 283.395 133.363 282.841Z" stroke="#87E91D" stroke-width="1.25"/>
<path d="M139.283 287.667C140.013 287.258 140.262 286.36 140.759 284.565L141.462 282.025C141.959 280.229 142.207 279.331 141.785 278.624C141.364 277.917 140.436 277.676 138.582 277.195L137.27 276.855C135.415 276.373 134.488 276.133 133.758 276.541C133.237 276.832 132.962 277.371 132.667 278.305" stroke="#87E91D" stroke-width="1.25"/>
<path d="M148.444 282.812C148.444 281.996 148.632 281.264 149.008 280.616C149.392 279.968 149.908 279.464 150.556 279.104C151.212 278.736 151.928 278.552 152.704 278.552C153.592 278.552 154.38 278.772 155.068 279.212C155.764 279.644 156.268 280.26 156.58 281.06H154.936C154.72 280.62 154.42 280.292 154.036 280.076C153.652 279.86 153.208 279.752 152.704 279.752C152.152 279.752 151.66 279.876 151.228 280.124C150.796 280.372 150.456 280.728 150.208 281.192C149.968 281.656 149.848 282.196 149.848 282.812C149.848 283.428 149.968 283.968 150.208 284.432C150.456 284.896 150.796 285.256 151.228 285.512C151.66 285.76 152.152 285.884 152.704 285.884C153.208 285.884 153.652 285.776 154.036 285.56C154.42 285.344 154.72 285.016 154.936 284.576H156.58C156.268 285.376 155.764 285.992 155.068 286.424C154.38 286.856 153.592 287.072 152.704 287.072C151.92 287.072 151.204 286.892 150.556 286.532C149.908 286.164 149.392 285.656 149.008 285.008C148.632 284.36 148.444 283.628 148.444 282.812ZM161.049 287.108C160.425 287.108 159.861 286.968 159.357 286.688C158.853 286.4 158.457 286 158.169 285.488C157.881 284.968 157.737 284.368 157.737 283.688C157.737 283.016 157.885 282.42 158.181 281.9C158.477 281.38 158.881 280.98 159.393 280.7C159.905 280.42 160.477 280.28 161.109 280.28C161.741 280.28 162.313 280.42 162.825 280.7C163.337 280.98 163.741 281.38 164.037 281.9C164.333 282.42 164.481 283.016 164.481 283.688C164.481 284.36 164.329 284.956 164.025 285.476C163.721 285.996 163.305 286.4 162.777 286.688C162.257 286.968 161.681 287.108 161.049 287.108ZM161.049 285.92C161.401 285.92 161.729 285.836 162.033 285.668C162.345 285.5 162.597 285.248 162.789 284.912C162.981 284.576 163.077 284.168 163.077 283.688C163.077 283.208 162.985 282.804 162.801 282.476C162.617 282.14 162.373 281.888 162.069 281.72C161.765 281.552 161.437 281.468 161.085 281.468C160.733 281.468 160.405 281.552 160.101 281.72C159.805 281.888 159.569 282.14 159.393 282.476C159.217 282.804 159.129 283.208 159.129 283.688C159.129 284.4 159.309 284.952 159.669 285.344C160.037 285.728 160.497 285.92 161.049 285.92ZM167.202 278.12V287H165.834V278.12H167.202ZM170.366 278.12V287H168.998V278.12H170.366ZM178.222 283.532C178.222 283.78 178.206 284.004 178.174 284.204H173.122C173.162 284.732 173.358 285.156 173.71 285.476C174.062 285.796 174.494 285.956 175.006 285.956C175.742 285.956 176.262 285.648 176.566 285.032H178.042C177.842 285.64 177.478 286.14 176.95 286.532C176.43 286.916 175.782 287.108 175.006 287.108C174.374 287.108 173.806 286.968 173.302 286.688C172.806 286.4 172.414 286 172.126 285.488C171.846 284.968 171.706 284.368 171.706 283.688C171.706 283.008 171.842 282.412 172.114 281.9C172.394 281.38 172.782 280.98 173.278 280.7C173.782 280.42 174.358 280.28 175.006 280.28C175.63 280.28 176.186 280.416 176.674 280.688C177.162 280.96 177.542 281.344 177.814 281.84C178.086 282.328 178.222 282.892 178.222 283.532ZM176.794 283.1C176.786 282.596 176.606 282.192 176.254 281.888C175.902 281.584 175.466 281.432 174.946 281.432C174.474 281.432 174.07 281.584 173.734 281.888C173.398 282.184 173.198 282.588 173.134 283.1H176.794ZM179.112 283.688C179.112 283.008 179.248 282.412 179.52 281.9C179.8 281.38 180.184 280.98 180.672 280.7C181.16 280.42 181.72 280.28 182.352 280.28C183.152 280.28 183.812 280.472 184.332 280.856C184.86 281.232 185.216 281.772 185.4 282.476H183.924C183.804 282.148 183.612 281.892 183.348 281.708C183.084 281.524 182.752 281.432 182.352 281.432C181.792 281.432 181.344 281.632 181.008 282.032C180.68 282.424 180.516 282.976 180.516 283.688C180.516 284.4 180.68 284.956 181.008 285.356C181.344 285.756 181.792 285.956 182.352 285.956C183.144 285.956 183.668 285.608 183.924 284.912H185.4C185.208 285.584 184.848 286.12 184.32 286.52C183.792 286.912 183.136 287.108 182.352 287.108C181.72 287.108 181.16 286.968 180.672 286.688C180.184 286.4 179.8 286 179.52 285.488C179.248 284.968 179.112 284.368 179.112 283.688ZM188.359 281.504V285.164C188.359 285.412 188.415 285.592 188.527 285.704C188.647 285.808 188.847 285.86 189.127 285.86H189.967V287H188.887C188.271 287 187.799 286.856 187.471 286.568C187.143 286.28 186.979 285.812 186.979 285.164V281.504H186.199V280.388H186.979V278.744H188.359V280.388H189.967V281.504H188.359ZM191.924 279.512C191.676 279.512 191.468 279.428 191.3 279.26C191.132 279.092 191.048 278.884 191.048 278.636C191.048 278.388 191.132 278.18 191.3 278.012C191.468 277.844 191.676 277.76 191.924 277.76C192.164 277.76 192.368 277.844 192.536 278.012C192.704 278.18 192.788 278.388 192.788 278.636C192.788 278.884 192.704 279.092 192.536 279.26C192.368 279.428 192.164 279.512 191.924 279.512ZM192.596 280.388V287H191.228V280.388H192.596ZM197.26 287.108C196.636 287.108 196.072 286.968 195.568 286.688C195.064 286.4 194.668 286 194.38 285.488C194.092 284.968 193.948 284.368 193.948 283.688C193.948 283.016 194.096 282.42 194.392 281.9C194.688 281.38 195.092 280.98 195.604 280.7C196.116 280.42 196.688 280.28 197.32 280.28C197.952 280.28 198.524 280.42 199.036 280.7C199.548 280.98 199.952 281.38 200.248 281.9C200.544 282.42 200.692 283.016 200.692 283.688C200.692 284.36 200.54 284.956 200.236 285.476C199.932 285.996 199.516 286.4 198.988 286.688C198.468 286.968 197.892 287.108 197.26 287.108ZM197.26 285.92C197.612 285.92 197.94 285.836 198.244 285.668C198.556 285.5 198.808 285.248 199 284.912C199.192 284.576 199.288 284.168 199.288 283.688C199.288 283.208 199.196 282.804 199.012 282.476C198.828 282.14 198.584 281.888 198.28 281.72C197.976 281.552 197.648 281.468 197.296 281.468C196.944 281.468 196.616 281.552 196.312 281.72C196.016 281.888 195.78 282.14 195.604 282.476C195.428 282.804 195.34 283.208 195.34 283.688C195.34 284.4 195.52 284.952 195.88 285.344C196.248 285.728 196.708 285.92 197.26 285.92ZM205.381 280.28C205.901 280.28 206.365 280.388 206.773 280.604C207.189 280.82 207.513 281.14 207.745 281.564C207.977 281.988 208.093 282.5 208.093 283.1V287H206.737V283.304C206.737 282.712 206.589 282.26 206.293 281.948C205.997 281.628 205.593 281.468 205.081 281.468C204.569 281.468 204.161 281.628 203.857 281.948C203.561 282.26 203.413 282.712 203.413 283.304V287H202.045V280.388H203.413V281.144C203.637 280.872 203.921 280.66 204.265 280.508C204.617 280.356 204.989 280.28 205.381 280.28Z" fill="#11181C"/>
</g>
<g filter="url(#filter5_di_5270_7190)">
<path d="M1159 8C1159 3.58172 1162.58 0 1167 0H1243C1247.42 0 1251 3.58172 1251 8V16C1251 20.4183 1247.42 24 1243 24H1167C1162.58 24 1159 20.4183 1159 16V8Z" fill="#F4F5F7" shape-rendering="crispEdges"/>
<path d="M1172 17V11.6667C1172 11.0381 1172 10.7239 1171.8 10.5286C1171.61 10.3333 1171.3 10.3333 1170.67 10.3333C1170.04 10.3333 1169.72 10.3333 1169.53 10.5286C1169.33 10.7239 1169.33 11.0381 1169.33 11.6667V17C1169.33 17.6285 1169.33 17.9428 1169.53 18.1381C1169.72 18.3333 1170.04 18.3333 1170.67 18.3333C1171.3 18.3333 1171.61 18.3333 1171.8 18.1381C1172 17.9428 1172 17.6285 1172 17Z" stroke="#F5A524" stroke-width="1.5" stroke-linecap="round" stroke-linejoin="round"/>
<path d="M1176.67 12.3333V17C1176.67 17.6285 1176.67 17.9428 1176.47 18.1381C1176.28 18.3333 1175.96 18.3333 1175.33 18.3333C1174.7 18.3333 1174.39 18.3333 1174.2 18.1381C1174 17.9428 1174 17.6285 1174 17V12.3333" stroke="#F5A524" stroke-width="1.5" stroke-linecap="round" stroke-linejoin="round"/>
<path d="M1174.62 10.1111V6.55554M1175.67 6.55554V5.66666M1175.67 11V10.1111M1174.62 8.33332H1176.71M1176.71 8.33332C1177.05 8.33332 1177.33 8.6318 1177.33 8.99999V9.44444C1177.33 9.81262 1177.05 10.1111 1176.71 10.1111H1174M1176.71 8.33332C1177.05 8.33332 1177.33 8.03484 1177.33 7.66666V7.22221C1177.33 6.85402 1177.05 6.55554 1176.71 6.55554H1174" stroke="#F5A524" stroke-width="1.5" stroke-linecap="round" stroke-linejoin="round"/>
<path d="M1167.33 17V13.6667C1167.33 13.0381 1167.33 12.7239 1167.14 12.5286C1166.94 12.3333 1166.63 12.3333 1166 12.3333C1165.37 12.3333 1165.06 12.3333 1164.86 12.5286C1164.67 12.7239 1164.67 13.0381 1164.67 13.6667V17C1164.67 17.6285 1164.67 17.9428 1164.86 18.1381C1165.06 18.3333 1165.37 18.3333 1166 18.3333C1166.63 18.3333 1166.94 18.3333 1167.14 18.1381C1167.33 17.9428 1167.33 17.6285 1167.33 17Z" stroke="#F5A524" stroke-width="1.5" stroke-linecap="round" stroke-linejoin="round"/>
<path d="M1185.42 9.44C1186.01 9.44 1186.53 9.55467 1186.97 9.784C1187.42 10.008 1187.76 10.3333 1188 10.76C1188.25 11.1813 1188.37 11.6747 1188.37 12.24C1188.37 12.8053 1188.25 13.296 1188 13.712C1187.76 14.128 1187.42 14.448 1186.97 14.672C1186.53 14.8907 1186.01 15 1185.42 15H1183.6V9.44H1185.42ZM1185.42 14.256C1186.07 14.256 1186.57 14.08 1186.91 13.728C1187.26 13.376 1187.43 12.88 1187.43 12.24C1187.43 11.5947 1187.26 11.0907 1186.91 10.728C1186.57 10.3653 1186.07 10.184 1185.42 10.184H1184.51V14.256H1185.42ZM1193.31 12.688C1193.31 12.8533 1193.3 13.0027 1193.28 13.136H1189.91C1189.94 13.488 1190.07 13.7707 1190.3 13.984C1190.54 14.1973 1190.83 14.304 1191.17 14.304C1191.66 14.304 1192.01 14.0987 1192.21 13.688H1193.19C1193.06 14.0933 1192.82 14.4267 1192.46 14.688C1192.12 14.944 1191.69 15.072 1191.17 15.072C1190.75 15.072 1190.37 14.9787 1190.03 14.792C1189.7 14.6 1189.44 14.3333 1189.25 13.992C1189.06 13.6453 1188.97 13.2453 1188.97 12.792C1188.97 12.3387 1189.06 11.9413 1189.24 11.6C1189.43 11.2533 1189.69 10.9867 1190.02 10.8C1190.35 10.6133 1190.74 10.52 1191.17 10.52C1191.58 10.52 1191.95 10.6107 1192.28 10.792C1192.61 10.9733 1192.86 11.2293 1193.04 11.56C1193.22 11.8853 1193.31 12.2613 1193.31 12.688ZM1192.36 12.4C1192.35 12.064 1192.23 11.7947 1192 11.592C1191.77 11.3893 1191.47 11.288 1191.13 11.288C1190.81 11.288 1190.54 11.3893 1190.32 11.592C1190.1 11.7893 1189.96 12.0587 1189.92 12.4H1192.36ZM1196.1 12.768L1197.52 15H1196.49L1195.54 13.504L1194.64 15H1193.69L1195.11 12.832L1193.69 10.592H1194.72L1195.67 12.088L1196.57 10.592H1197.52L1196.1 12.768ZM1203.63 13.864H1201.3L1200.9 15H1199.95L1201.94 9.432H1203L1204.99 15H1204.03L1203.63 13.864ZM1203.38 13.12L1202.47 10.536L1201.56 13.12H1203.38ZM1207.63 10.52C1207.98 10.52 1208.28 10.5893 1208.54 10.728C1208.8 10.8613 1209.01 11.0293 1209.16 11.232V10.592H1210.08V15.072C1210.08 15.4773 1210 15.8373 1209.83 16.152C1209.66 16.472 1209.41 16.7227 1209.08 16.904C1208.76 17.0853 1208.38 17.176 1207.93 17.176C1207.33 17.176 1206.84 17.0347 1206.44 16.752C1206.05 16.4747 1205.82 16.096 1205.77 15.616H1206.67C1206.74 15.8453 1206.89 16.0293 1207.11 16.168C1207.34 16.312 1207.62 16.384 1207.93 16.384C1208.3 16.384 1208.59 16.272 1208.82 16.048C1209.05 15.824 1209.16 15.4987 1209.16 15.072V14.336C1209.01 14.544 1208.8 14.72 1208.53 14.864C1208.27 15.0027 1207.97 15.072 1207.63 15.072C1207.25 15.072 1206.9 14.976 1206.58 14.784C1206.26 14.5867 1206.01 14.3147 1205.83 13.968C1205.64 13.616 1205.55 13.2187 1205.55 12.776C1205.55 12.3333 1205.64 11.9413 1205.83 11.6C1206.01 11.2587 1206.26 10.9947 1206.58 10.808C1206.9 10.616 1207.25 10.52 1207.63 10.52ZM1209.16 12.792C1209.16 12.488 1209.1 12.224 1208.97 12C1208.85 11.776 1208.68 11.6053 1208.48 11.488C1208.28 11.3707 1208.06 11.312 1207.83 11.312C1207.59 11.312 1207.37 11.3707 1207.17 11.488C1206.97 11.6 1206.8 11.768 1206.67 11.992C1206.55 12.2107 1206.49 12.472 1206.49 12.776C1206.49 13.08 1206.55 13.3467 1206.67 13.576C1206.8 13.8053 1206.97 13.9813 1207.17 14.104C1207.38 14.2213 1207.6 14.28 1207.83 14.28C1208.06 14.28 1208.28 14.2213 1208.48 14.104C1208.68 13.9867 1208.85 13.816 1208.97 13.592C1209.1 13.3627 1209.16 13.096 1209.16 12.792ZM1213.06 10.52C1213.4 10.52 1213.7 10.5893 1213.96 10.728C1214.23 10.8613 1214.43 11.0293 1214.58 11.232V10.592H1215.5V15.072C1215.5 15.4773 1215.42 15.8373 1215.25 16.152C1215.08 16.472 1214.83 16.7227 1214.5 16.904C1214.18 17.0853 1213.8 17.176 1213.35 17.176C1212.75 17.176 1212.26 17.0347 1211.86 16.752C1211.47 16.4747 1211.25 16.096 1211.19 15.616H1212.1C1212.17 15.8453 1212.31 16.0293 1212.54 16.168C1212.77 16.312 1213.04 16.384 1213.35 16.384C1213.72 16.384 1214.02 16.272 1214.24 16.048C1214.47 15.824 1214.58 15.4987 1214.58 15.072V14.336C1214.43 14.544 1214.22 14.72 1213.95 14.864C1213.69 15.0027 1213.39 15.072 1213.06 15.072C1212.67 15.072 1212.32 14.976 1212 14.784C1211.69 14.5867 1211.43 14.3147 1211.25 13.968C1211.07 13.616 1210.98 13.2187 1210.98 12.776C1210.98 12.3333 1211.07 11.9413 1211.25 11.6C1211.43 11.2587 1211.69 10.9947 1212 10.808C1212.32 10.616 1212.67 10.52 1213.06 10.52ZM1214.58 12.792C1214.58 12.488 1214.52 12.224 1214.39 12C1214.27 11.776 1214.11 11.6053 1213.9 11.488C1213.7 11.3707 1213.48 11.312 1213.25 11.312C1213.01 11.312 1212.79 11.3707 1212.59 11.488C1212.39 11.6 1212.22 11.768 1212.1 11.992C1211.97 12.2107 1211.91 12.472 1211.91 12.776C1211.91 13.08 1211.97 13.3467 1212.1 13.576C1212.22 13.8053 1212.39 13.9813 1212.59 14.104C1212.8 14.2213 1213.02 14.28 1213.25 14.28C1213.48 14.28 1213.7 14.2213 1213.9 14.104C1214.11 13.9867 1214.27 13.816 1214.39 13.592C1214.52 13.3627 1214.58 13.096 1214.58 12.792ZM1217.61 11.232C1217.75 11.008 1217.92 10.8347 1218.14 10.712C1218.37 10.584 1218.63 10.52 1218.93 10.52V11.464H1218.7C1218.34 11.464 1218.07 11.5547 1217.89 11.736C1217.7 11.9173 1217.61 12.232 1217.61 12.68V15H1216.7V10.592H1217.61V11.232ZM1223.81 12.688C1223.81 12.8533 1223.8 13.0027 1223.78 13.136H1220.41C1220.44 13.488 1220.57 13.7707 1220.8 13.984C1221.04 14.1973 1221.33 14.304 1221.67 14.304C1222.16 14.304 1222.51 14.0987 1222.71 13.688H1223.69C1223.56 14.0933 1223.32 14.4267 1222.96 14.688C1222.62 14.944 1222.19 15.072 1221.67 15.072C1221.25 15.072 1220.87 14.9787 1220.53 14.792C1220.2 14.6 1219.94 14.3333 1219.75 13.992C1219.56 13.6453 1219.47 13.2453 1219.47 12.792C1219.47 12.3387 1219.56 11.9413 1219.74 11.6C1219.93 11.2533 1220.19 10.9867 1220.52 10.8C1220.85 10.6133 1221.24 10.52 1221.67 10.52C1222.08 10.52 1222.45 10.6107 1222.78 10.792C1223.11 10.9733 1223.36 11.2293 1223.54 11.56C1223.72 11.8853 1223.81 12.2613 1223.81 12.688ZM1222.86 12.4C1222.85 12.064 1222.73 11.7947 1222.5 11.592C1222.27 11.3893 1221.97 11.288 1221.63 11.288C1221.31 11.288 1221.04 11.3893 1220.82 11.592C1220.6 11.7893 1220.46 12.0587 1220.42 12.4H1222.86ZM1226.49 10.52C1226.83 10.52 1227.13 10.5893 1227.39 10.728C1227.66 10.8613 1227.86 11.0293 1228.01 11.232V10.592H1228.93V15.072C1228.93 15.4773 1228.85 15.8373 1228.68 16.152C1228.51 16.472 1228.26 16.7227 1227.93 16.904C1227.61 17.0853 1227.23 17.176 1226.78 17.176C1226.18 17.176 1225.69 17.0347 1225.29 16.752C1224.9 16.4747 1224.67 16.096 1224.62 15.616H1225.53C1225.59 15.8453 1225.74 16.0293 1225.97 16.168C1226.19 16.312 1226.47 16.384 1226.78 16.384C1227.15 16.384 1227.45 16.272 1227.67 16.048C1227.9 15.824 1228.01 15.4987 1228.01 15.072V14.336C1227.86 14.544 1227.65 14.72 1227.38 14.864C1227.12 15.0027 1226.82 15.072 1226.49 15.072C1226.1 15.072 1225.75 14.976 1225.43 14.784C1225.11 14.5867 1224.86 14.3147 1224.68 13.968C1224.5 13.616 1224.41 13.2187 1224.41 12.776C1224.41 12.3333 1224.5 11.9413 1224.68 11.6C1224.86 11.2587 1225.11 10.9947 1225.43 10.808C1225.75 10.616 1226.1 10.52 1226.49 10.52ZM1228.01 12.792C1228.01 12.488 1227.95 12.224 1227.82 12C1227.7 11.776 1227.54 11.6053 1227.33 11.488C1227.13 11.3707 1226.91 11.312 1226.68 11.312C1226.44 11.312 1226.22 11.3707 1226.02 11.488C1225.82 11.6 1225.65 11.768 1225.53 11.992C1225.4 12.2107 1225.34 12.472 1225.34 12.776C1225.34 13.08 1225.4 13.3467 1225.53 13.576C1225.65 13.8053 1225.82 13.9813 1226.02 14.104C1226.23 14.2213 1226.45 14.28 1226.68 14.28C1226.91 14.28 1227.13 14.2213 1227.33 14.104C1227.54 13.9867 1227.7 13.816 1227.82 13.592C1227.95 13.3627 1228.01 13.096 1228.01 12.792ZM1229.83 12.776C1229.83 12.3333 1229.92 11.9413 1230.1 11.6C1230.29 11.2587 1230.54 10.9947 1230.85 10.808C1231.17 10.616 1231.52 10.52 1231.91 10.52C1232.25 10.52 1232.56 10.5893 1232.81 10.728C1233.07 10.8613 1233.28 11.0293 1233.44 11.232V10.592H1234.36V15H1233.44V14.344C1233.28 14.552 1233.07 14.7253 1232.8 14.864C1232.54 15.0027 1232.23 15.072 1231.89 15.072C1231.51 15.072 1231.17 14.976 1230.85 14.784C1230.54 14.5867 1230.29 14.3147 1230.1 13.968C1229.92 13.616 1229.83 13.2187 1229.83 12.776ZM1233.44 12.792C1233.44 12.488 1233.37 12.224 1233.24 12C1233.12 11.776 1232.96 11.6053 1232.76 11.488C1232.55 11.3707 1232.33 11.312 1232.1 11.312C1231.86 11.312 1231.65 11.3707 1231.44 11.488C1231.24 11.6 1231.08 11.768 1230.95 11.992C1230.82 12.2107 1230.76 12.472 1230.76 12.776C1230.76 13.08 1230.82 13.3467 1230.95 13.576C1231.08 13.8053 1231.24 13.9813 1231.44 14.104C1231.65 14.2213 1231.87 14.28 1232.1 14.28C1232.33 14.28 1232.55 14.2213 1232.76 14.104C1232.96 13.9867 1233.12 13.816 1233.24 13.592C1233.37 13.3627 1233.44 13.096 1233.44 12.792ZM1236.62 11.336V13.776C1236.62 13.9413 1236.65 14.0613 1236.73 14.136C1236.81 14.2053 1236.94 14.24 1237.13 14.24H1237.69V15H1236.97C1236.56 15 1236.24 14.904 1236.03 14.712C1235.81 14.52 1235.7 14.208 1235.7 13.776V11.336H1235.18V10.592H1235.7V9.496H1236.62V10.592H1237.69V11.336H1236.62ZM1240.44 15.072C1240.03 15.072 1239.65 14.9787 1239.31 14.792C1238.98 14.6 1238.71 14.3333 1238.52 13.992C1238.33 13.6453 1238.23 13.2453 1238.23 12.792C1238.23 12.344 1238.33 11.9467 1238.53 11.6C1238.73 11.2533 1239 10.9867 1239.34 10.8C1239.68 10.6133 1240.06 10.52 1240.48 10.52C1240.9 10.52 1241.28 10.6133 1241.63 10.8C1241.97 10.9867 1242.24 11.2533 1242.43 11.6C1242.63 11.9467 1242.73 12.344 1242.73 12.792C1242.73 13.24 1242.63 13.6373 1242.43 13.984C1242.22 14.3307 1241.95 14.6 1241.59 14.792C1241.25 14.9787 1240.86 15.072 1240.44 15.072ZM1240.44 14.28C1240.68 14.28 1240.9 14.224 1241.1 14.112C1241.31 14 1241.47 13.832 1241.6 13.608C1241.73 13.384 1241.79 13.112 1241.79 12.792C1241.79 12.472 1241.73 12.2027 1241.61 11.984C1241.49 11.76 1241.32 11.592 1241.12 11.48C1240.92 11.368 1240.7 11.312 1240.47 11.312C1240.23 11.312 1240.01 11.368 1239.81 11.48C1239.61 11.592 1239.46 11.76 1239.34 11.984C1239.22 12.2027 1239.16 12.472 1239.16 12.792C1239.16 13.2667 1239.28 13.6347 1239.52 13.896C1239.77 14.152 1240.07 14.28 1240.44 14.28ZM1244.54 11.232C1244.68 11.008 1244.85 10.8347 1245.07 10.712C1245.3 10.584 1245.56 10.52 1245.86 10.52V11.464H1245.63C1245.27 11.464 1245 11.5547 1244.82 11.736C1244.63 11.9173 1244.54 12.232 1244.54 12.68V15H1243.63V10.592H1244.54V11.232Z" fill="#11181C"/>
</g>
<defs>
<filter id="filter0_di_5270_7190" x="0" y="148" width="113" height="33" filterUnits="userSpaceOnUse" color-interpolation-filters="sRGB">
<feFlood flood-opacity="0" result="BackgroundImageFix"/>
<feColorMatrix in="SourceAlpha" type="matrix" values="0 0 0 0 0 0 0 0 0 0 0 0 0 0 0 0 0 0 127 0" result="hardAlpha"/>
<feOffset dy="2"/>
<feGaussianBlur stdDeviation="1"/>
<feComposite in2="hardAlpha" operator="out"/>
<feColorMatrix type="matrix" values="0 0 0 0 0 0 0 0 0 0 0 0 0 0 0 0 0 0 0.1 0"/>
<feBlend mode="normal" in2="BackgroundImageFix" result="effect1_dropShadow_5270_7190"/>
<feBlend mode="normal" in="SourceGraphic" in2="effect1_dropShadow_5270_7190" result="shape"/>
<feColorMatrix in="SourceAlpha" type="matrix" values="0 0 0 0 0 0 0 0 0 0 0 0 0 0 0 0 0 0 127 0" result="hardAlpha"/>
<feOffset dy="-2"/>
<feGaussianBlur stdDeviation="0.5"/>
<feComposite in2="hardAlpha" operator="arithmetic" k2="-1" k3="1"/>
<feColorMatrix type="matrix" values="0 0 0 0 0 0 0 0 0 0 0 0 0 0 0 0 0 0 0.1 0"/>
<feBlend mode="normal" in2="shape" result="effect2_innerShadow_5270_7190"/>
</filter>
<filter id="filter1_di_5270_7190" x="1183" y="116" width="70" height="33" filterUnits="userSpaceOnUse" color-interpolation-filters="sRGB">
<feFlood flood-opacity="0" result="BackgroundImageFix"/>
<feColorMatrix in="SourceAlpha" type="matrix" values="0 0 0 0 0 0 0 0 0 0 0 0 0 0 0 0 0 0 127 0" result="hardAlpha"/>
<feOffset dy="2"/>
<feGaussianBlur stdDeviation="1"/>
<feComposite in2="hardAlpha" operator="out"/>
<feColorMatrix type="matrix" values="0 0 0 0 0 0 0 0 0 0 0 0 0 0 0 0 0 0 0.25 0"/>
<feBlend mode="normal" in2="BackgroundImageFix" result="effect1_dropShadow_5270_7190"/>
<feBlend mode="normal" in="SourceGraphic" in2="effect1_dropShadow_5270_7190" result="shape"/>
<feColorMatrix in="SourceAlpha" type="matrix" values="0 0 0 0 0 0 0 0 0 0 0 0 0 0 0 0 0 0 127 0" result="hardAlpha"/>
<feOffset dy="-2"/>
<feGaussianBlur stdDeviation="0.5"/>
<feComposite in2="hardAlpha" operator="arithmetic" k2="-1" k3="1"/>
<feColorMatrix type="matrix" values="0 0 0 0 0 0 0 0 0 0 0 0 0 0 0 0 0 0 0.1 0"/>
<feBlend mode="normal" in2="shape" result="effect2_innerShadow_5270_7190"/>
</filter>
<filter id="filter2_di_5270_7190" x="75" y="-1" width="71" height="33" filterUnits="userSpaceOnUse" color-interpolation-filters="sRGB">
<feFlood flood-opacity="0" result="BackgroundImageFix"/>
<feColorMatrix in="SourceAlpha" type="matrix" values="0 0 0 0 0 0 0 0 0 0 0 0 0 0 0 0 0 0 127 0" result="hardAlpha"/>
<feOffset dy="2"/>
<feGaussianBlur stdDeviation="1"/>
<feComposite in2="hardAlpha" operator="out"/>
<feColorMatrix type="matrix" values="0 0 0 0 0 0 0 0 0 0 0 0 0 0 0 0 0 0 0.1 0"/>
<feBlend mode="normal" in2="BackgroundImageFix" result="effect1_dropShadow_5270_7190"/>
<feBlend mode="normal" in="SourceGraphic" in2="effect1_dropShadow_5270_7190" result="shape"/>
<feColorMatrix in="SourceAlpha" type="matrix" values="0 0 0 0 0 0 0 0 0 0 0 0 0 0 0 0 0 0 127 0" result="hardAlpha"/>
<feOffset dy="-2"/>
<feGaussianBlur stdDeviation="0.5"/>
<feComposite in2="hardAlpha" operator="arithmetic" k2="-1" k3="1"/>
<feColorMatrix type="matrix" values="0 0 0 0 0 0 0 0 0 0 0 0 0 0 0 0 0 0 0.1 0"/>
<feBlend mode="normal" in2="shape" result="effect2_innerShadow_5270_7190"/>
</filter>
<filter id="filter3_di_5270_7190" x="1081" y="250" width="54" height="33" filterUnits="userSpaceOnUse" color-interpolation-filters="sRGB">
<feFlood flood-opacity="0" result="BackgroundImageFix"/>
<feColorMatrix in="SourceAlpha" type="matrix" values="0 0 0 0 0 0 0 0 0 0 0 0 0 0 0 0 0 0 127 0" result="hardAlpha"/>
<feOffset dy="2"/>
<feGaussianBlur stdDeviation="1"/>
<feComposite in2="hardAlpha" operator="out"/>
<feColorMatrix type="matrix" values="0 0 0 0 0 0 0 0 0 0 0 0 0 0 0 0 0 0 0.1 0"/>
<feBlend mode="normal" in2="BackgroundImageFix" result="effect1_dropShadow_5270_7190"/>
<feBlend mode="normal" in="SourceGraphic" in2="effect1_dropShadow_5270_7190" result="shape"/>
<feColorMatrix in="SourceAlpha" type="matrix" values="0 0 0 0 0 0 0 0 0 0 0 0 0 0 0 0 0 0 127 0" result="hardAlpha"/>
<feOffset dy="-2"/>
<feGaussianBlur stdDeviation="0.5"/>
<feComposite in2="hardAlpha" operator="arithmetic" k2="-1" k3="1"/>
<feColorMatrix type="matrix" values="0 0 0 0 0 0 0 0 0 0 0 0 0 0 0 0 0 0 0.1 0"/>
<feBlend mode="normal" in2="shape" result="effect2_innerShadow_5270_7190"/>
</filter>
<filter id="filter4_di_5270_7190" x="122" y="268" width="93" height="33" filterUnits="userSpaceOnUse" color-interpolation-filters="sRGB">
<feFlood flood-opacity="0" result="BackgroundImageFix"/>
<feColorMatrix in="SourceAlpha" type="matrix" values="0 0 0 0 0 0 0 0 0 0 0 0 0 0 0 0 0 0 127 0" result="hardAlpha"/>
<feOffset dy="2"/>
<feGaussianBlur stdDeviation="1"/>
<feComposite in2="hardAlpha" operator="out"/>
<feColorMatrix type="matrix" values="0 0 0 0 0 0 0 0 0 0 0 0 0 0 0 0 0 0 0.1 0"/>
<feBlend mode="normal" in2="BackgroundImageFix" result="effect1_dropShadow_5270_7190"/>
<feBlend mode="normal" in="SourceGraphic" in2="effect1_dropShadow_5270_7190" result="shape"/>
<feColorMatrix in="SourceAlpha" type="matrix" values="0 0 0 0 0 0 0 0 0 0 0 0 0 0 0 0 0 0 127 0" result="hardAlpha"/>
<feOffset dy="-2"/>
<feGaussianBlur stdDeviation="0.5"/>
<feComposite in2="hardAlpha" operator="arithmetic" k2="-1" k3="1"/>
<feColorMatrix type="matrix" values="0 0 0 0 0 0 0 0 0 0 0 0 0 0 0 0 0 0 0.1 0"/>
<feBlend mode="normal" in2="shape" result="effect2_innerShadow_5270_7190"/>
</filter>
<filter id="filter5_di_5270_7190" x="1157" y="-1" width="96" height="29" filterUnits="userSpaceOnUse" color-interpolation-filters="sRGB">
<feFlood flood-opacity="0" result="BackgroundImageFix"/>
<feColorMatrix in="SourceAlpha" type="matrix" values="0 0 0 0 0 0 0 0 0 0 0 0 0 0 0 0 0 0 127 0" result="hardAlpha"/>
<feOffset dy="2"/>
<feGaussianBlur stdDeviation="1"/>
<feComposite in2="hardAlpha" operator="out"/>
<feColorMatrix type="matrix" values="0 0 0 0 0 0 0 0 0 0 0 0 0 0 0 0 0 0 0.1 0"/>
<feBlend mode="normal" in2="BackgroundImageFix" result="effect1_dropShadow_5270_7190"/>
<feBlend mode="normal" in="SourceGraphic" in2="effect1_dropShadow_5270_7190" result="shape"/>
<feColorMatrix in="SourceAlpha" type="matrix" values="0 0 0 0 0 0 0 0 0 0 0 0 0 0 0 0 0 0 127 0" result="hardAlpha"/>
<feOffset dy="-2"/>
<feGaussianBlur stdDeviation="0.5"/>
<feComposite in2="hardAlpha" operator="arithmetic" k2="-1" k3="1"/>
<feColorMatrix type="matrix" values="0 0 0 0 0 0 0 0 0 0 0 0 0 0 0 0 0 0 0.1 0"/>
<feBlend mode="normal" in2="shape" result="effect2_innerShadow_5270_7190"/>
</filter>
</defs>
</svg>
