<svg width="32" height="32" viewBox="0 0 32 32" fill="none" xmlns="http://www.w3.org/2000/svg">
<path d="M0 8C0 3.58172 3.58172 0 8 0H24C28.4183 0 32 3.58172 32 8V24C32 28.4183 28.4183 32 24 32H8C3.58172 32 0 28.4183 0 24V8Z" fill="#006FEE"/>
<g filter="url(#filter0_d_4421_305)">
<path d="M16 24V16M16 16L8 12M16 16L24 12" stroke="#99C7FB" stroke-width="5.33333" stroke-linecap="round" stroke-linejoin="round"/>
<path d="M16 11V24M16 24L8 20M16 24L24 20" stroke="#99C7FB" stroke-width="5.33333" stroke-linecap="round" stroke-linejoin="round"/>
<path d="M16 23V15M16 15L8 11M16 15L24 11" stroke="#E6F1FE" stroke-width="5.33333" stroke-linecap="round" stroke-linejoin="round"/>
<path d="M16 10V23M16 23L8 19M16 23L24 19" stroke="#E6F1FE" stroke-width="5.33333" stroke-linecap="round" stroke-linejoin="round"/>
</g>
<defs>
<filter id="filter0_d_4421_305" x="3.33276" y="7.33331" width="25.3345" height="23.3334" filterUnits="userSpaceOnUse" colorInterpolationFilters="sRGB">
<feFlood floodOpacity="0" result="BackgroundImageFix"/>
<feColorMatrix in="SourceAlpha" type="matrix" values="0 0 0 0 0 0 0 0 0 0 0 0 0 0 0 0 0 0 127 0" result="hardAlpha"/>
<feOffset dy="2"/>
<feGaussianBlur stdDeviation="1"/>
<feComposite in2="hardAlpha" operator="out"/>
<feColorMatrix type="matrix" values="0 0 0 0 0 0 0 0 0 0.292843 0 0 0 0 0.627897 0 0 0 0.75 0"/>
<feBlend mode="normal" in2="BackgroundImageFix" result="effect1_dropShadow_4421_305"/>
<feBlend mode="normal" in="SourceGraphic" in2="effect1_dropShadow_4421_305" result="shape"/>
</filter>
</defs>
</svg>
